<svg xmlns="http://www.w3.org/2000/svg" xmlns:xlink="http://www.w3.org/1999/xlink" width="1640" zoomAndPan="magnify" viewBox="0 0 1230 693.000001" height="924" preserveAspectRatio="xMidYMid meet" version="1.0"><defs><g/><clipPath id="94bb5adeaa"><path d="M 16 157 L 1206 157 L 1206 480 L 16 480 Z M 16 157 " clip-rule="nonzero"/></clipPath><clipPath id="163e8b4d9c"><path d="M 16.621094 277.683594 L 1184.445312 157.929688 L 1205.113281 359.480469 L 37.289062 479.238281 Z M 16.621094 277.683594 " clip-rule="nonzero"/></clipPath><clipPath id="d5c730c96e"><path d="M -33.113281 -207.300781 L 1134.710938 -327.058594 L 1254.46875 840.765625 L 86.640625 960.523438 Z M -33.113281 -207.300781 " clip-rule="nonzero"/></clipPath><clipPath id="9976a848e1"><path d="M 0.886719 289 L 100 289 L 100 465 L 0.886719 465 Z M 0.886719 289 " clip-rule="nonzero"/></clipPath></defs><g clip-path="url(#94bb5adeaa)"><g clip-path="url(#163e8b4d9c)"><g clip-path="url(#d5c730c96e)"><path fill="#ff13a7" d="M -33.113281 -207.300781 L 1134.710938 -327.058594 L 1254.46875 840.765625 L 86.640625 960.523438 Z M -33.113281 -207.300781 " fill-opacity="1" fill-rule="nonzero"/></g></g></g><g clip-path="url(#9976a848e1)"><g fill="#222222" fill-opacity="1"><g transform="translate(17.62048, 437.320322)"><g><path d="M 55.917969 -22.8125 C 38.761719 -21.289062 24.199219 -10.4375 29.273438 -36.226562 C 30.09375 -41.925781 31.609375 -47.695312 32.449219 -53.164062 L 37.84375 -91.851562 C 38.75 -98.964844 42.597656 -125.328125 42.835938 -132.136719 C 43.0625 -134.5 43.054688 -136.839844 42.378906 -138.875 C 41.257812 -142.972656 38.703125 -145.050781 34.257812 -145.0625 C 31.710938 -144.800781 27.351562 -137.101562 24.804688 -136.839844 C 22.722656 -136.625 22.304688 -136.113281 21.15625 -133.65625 L 18.375 -124.246094 C 15.441406 -111.78125 11.867188 -87.316406 8.9375 -74.847656 C 7.492188 -68.382812 3.515625 -47.855469 2.304688 -41.414062 C 0.589844 -33.050781 -0.433594 -24.753906 -1.941406 -16.644531 C -4.214844 -0.0351562 -5.324219 0.546875 -9.785156 4.980469 C -11.613281 5.402344 -12.140625 7.09375 -11.789062 8.226562 C -11.207031 9.339844 -11.503906 11.007812 -11.59375 12.417969 C -11.21875 13.785156 -11.308594 15.199219 -11.191406 16.355469 C -10.792969 17.953125 -9.957031 19.269531 -9.582031 20.636719 C -9 21.746094 -8.648438 22.878906 -7.652344 23.480469 C -6.144531 24.496094 -4.175781 25.460938 -2.691406 26.246094 C -2.433594 26.453125 -2.203125 26.429688 -1.972656 26.40625 C 0.503906 25.449219 2.980469 24.496094 5.199219 23.332031 C 7.628906 21.914062 9.800781 20.285156 12.207031 18.636719 C 15.671875 15.941406 9.707031 19.359375 13.429688 16.871094 C 17.542969 13.644531 21.886719 10.390625 25.421875 6.050781 C 25.8125 5.308594 26.691406 4.75 27.339844 4.214844 C 28.863281 3.125 30.875 2.214844 32.402344 1.121094 C 36.820312 -1.4375 41.027344 -3.738281 45.421875 -6.53125 C 49.582031 -9.296875 53.609375 -11.113281 57.960938 -12.027344 C 59.582031 -12.191406 61.175781 -12.589844 63.167969 -13.730469 C 65.824219 -15.171875 68.324219 -15.898438 70.894531 -15.925781 C 71.128906 -15.949219 71.796875 -16.253906 71.773438 -16.484375 C 73.179688 -18.734375 74.777344 -19.132812 76.398438 -19.296875 C 76.863281 -19.347656 77.070312 -19.601562 77.742188 -19.902344 C 77.230469 -20.320312 76.925781 -20.992188 76.464844 -20.941406 C 73.800781 -21.839844 71.109375 -22.96875 67.796875 -23.328125 C 64.046875 -23.414062 60.085938 -23.242188 55.917969 -22.8125 Z M 55.917969 -22.8125 "/></g></g></g></g><g fill="#222222" fill-opacity="1"><g transform="translate(92.856855, 429.605121)"><g><path d="M -7.003906 -40.925781 C -6.703125 -40.257812 -6.863281 -39.539062 -6.558594 -38.867188 C -5.726562 -30.765625 -3.738281 -22.777344 0.214844 -16.164062 C 4.796875 -7.980469 10.996094 -2.296875 19.390625 1.988281 C 22.613281 3.765625 26.460938 4.773438 30.417969 4.601562 C 32.039062 4.433594 33.707031 4.730469 35.351562 4.796875 C 37.507812 5.277344 39.824219 5.039062 42.226562 3.390625 C 43.570312 2.785156 44.933594 2.410156 46.253906 1.574219 C 52.128906 -0.433594 56.890625 -4.195312 60.421875 -8.535156 C 64.394531 -13.15625 67.464844 -17.445312 70.996094 -21.785156 C 71.574219 -23.015625 72.820312 -24.546875 72.933594 -25.726562 C 75.234375 -30.644531 78.257812 -35.398438 78.894531 -40.609375 C 79.878906 -44.691406 81.582031 -48.609375 81.875 -52.613281 C 82.875 -58.800781 84.550781 -65.289062 84.371094 -71.589844 C 84.082031 -76.707031 85.386719 -82.222656 85.535156 -87.617188 C 85.277344 -90.164062 85.246094 -92.734375 84.984375 -95.28125 C 85.375 -96.023438 85.003906 -97.390625 85.394531 -98.132812 C 87.050781 -102.511719 87.917969 -107.75 87.882812 -112.660156 C 87.472656 -118.933594 86.601562 -125.160156 84.179688 -130.527344 C 81.964844 -136.148438 79.773438 -141.539062 76.105469 -145.375 C 72.96875 -148.5625 69.90625 -151.058594 66.589844 -153.757812 C 64.546875 -155.421875 61.441406 -156.039062 57.945312 -155.914062 C 50.328125 -154.898438 42.367188 -152.679688 35.96875 -146.640625 C 33.632812 -144.296875 31.484375 -142.4375 29.128906 -140.324219 C 28.550781 -139.09375 27.464844 -138.28125 25.773438 -138.808594 C 22.972656 -138.757812 20.214844 -138.242188 17.929688 -135.433594 C 15.070312 -131.394531 12.464844 -127.152344 11.039062 -122.792969 L 6.621094 -111.109375 C 5.421875 -109.117188 4.574219 -105.988281 3.882812 -103.578125 L -4.789062 -71.804688 C -7.449219 -61.238281 -8.976562 -51.019531 -7.003906 -40.925781 Z M 12.214844 -70.273438 C 16.9375 -69.820312 20.667969 -69.96875 24.097656 -68.449219 C 25.582031 -67.664062 27.386719 -68.320312 29.238281 -68.507812 C 30.398438 -68.628906 31.714844 -69.464844 31.574219 -70.851562 C 33.109375 -76.390625 35.160156 -81.515625 36.902344 -87.308594 C 36.832031 -88.003906 37.015625 -88.492188 37.664062 -89.023438 C 38.746094 -92.175781 39.617188 -95.074219 40.234375 -98.179688 C 41.058594 -101.539062 42.90625 -104.070312 44.242188 -107.011719 C 46.386719 -111.210938 48.066406 -115.359375 50.207031 -119.558594 C 50.992188 -121.042969 52.054688 -122.085938 52.957031 -122.414062 C 54.460938 -123.738281 56.054688 -124.132812 57.375 -124.972656 C 60.519531 -126.230469 63.164062 -125.566406 65.226562 -123.671875 C 68.035156 -121.386719 69.246094 -118.703125 69.394531 -114.972656 C 69.835938 -106.128906 69.675781 -96.285156 69.164062 -87.578125 C 68.015625 -73.65625 64.972656 -60.007812 59.722656 -47.300781 C 55.050781 -35.828125 47.875 -25.964844 39.882812 -17.191406 C 37.574219 -14.617188 34.449219 -13.125 31.582031 -11.425781 C 30.289062 -10.359375 28.390625 -10.632812 26.90625 -11.414062 C 23.195312 -13.375 21.703125 -16.496094 20.582031 -20.59375 C 19.039062 -26.519531 17.03125 -32.394531 14.746094 -38.710938 C 14.136719 -42.394531 12.621094 -45.746094 11.523438 -49.613281 C 11.261719 -52.160156 11.71875 -54.546875 11.667969 -57.347656 C 11.636719 -59.917969 11.558594 -62.953125 12.175781 -66.058594 C 12.058594 -67.214844 11.917969 -68.605469 12.214844 -70.273438 Z M 12.214844 -70.273438 "/></g></g></g><g fill="#222222" fill-opacity="1"><g transform="translate(201.197208, 418.495233)"><g><path d="M 23.859375 -79.890625 C 14.910156 -85.054688 3.949219 -96.097656 20.191406 -101.972656 L 27.898438 -104.402344 C 30.140625 -105.332031 32.664062 -105.828125 34.957031 -106.296875 C 43.035156 -107.359375 50.5625 -106.960938 58.066406 -106.792969 C 61.820312 -106.710938 65.597656 -106.394531 69.210938 -105.363281 C 70.207031 -104.761719 71.597656 -104.90625 72.914062 -105.742188 C 75.390625 -106.699219 77.355469 -108.070312 79.785156 -109.488281 C 81.308594 -110.582031 82.347656 -111.855469 83.109375 -113.574219 C 83.867188 -115.289062 85.117188 -116.820312 85.851562 -118.765625 C 86.820312 -120.738281 87.738281 -123.171875 87.804688 -124.816406 C 87.632812 -128.777344 88.617188 -132.855469 90.066406 -136.980469 C 90.410156 -138.1875 90.292969 -139.34375 90.40625 -140.523438 C 90.359375 -140.988281 90.289062 -141.683594 90.472656 -142.167969 C 90.976562 -144.09375 90.1875 -144.949219 88.933594 -145.753906 C 85.6875 -147.761719 81.65625 -148.285156 77.441406 -148.320312 L 65.699219 -148.753906 C 52.867188 -148.375 39.71875 -146.558594 26.117188 -140.015625 C 23.691406 -138.597656 20.984375 -137.617188 18.324219 -136.175781 C 9.585938 -130.132812 1.125 -123.648438 -4.734375 -114.625 C -11.21875 -104.835938 -14.847656 -92.296875 -8.617188 -84.046875 C -5.292969 -79.003906 -1.066406 -74.292969 4.429688 -70.878906 C 9.207031 -67.625 14.171875 -64.859375 19.574219 -62.371094 C 28.40625 -58.363281 37.265625 -54.125 45.035156 -49.070312 C 49.792969 -46.050781 52.351562 -41.632812 54.515625 -36.472656 C 55.355469 -35.15625 54.847656 -33.230469 52.933594 -31.398438 C 50.414062 -28.566406 47.363281 -26.382812 44.496094 -24.683594 C 40.542969 -22.171875 36.308594 -20.101562 32.332031 -17.820312 C 28.355469 -15.542969 24.050781 -14.164062 19.953125 -13.042969 C 17.683594 -12.34375 15.347656 -12.335938 13.421875 -12.839844 C 11.753906 -13.136719 10.941406 -14.222656 11.007812 -15.867188 C 11 -18.207031 10.8125 -20.058594 11.058594 -22.191406 C 11.167969 -25.710938 12.503906 -28.65625 14.507812 -31.902344 L 18.082031 -38.117188 C 18.683594 -39.117188 18.84375 -39.835938 18.539062 -40.503906 C 18.191406 -41.640625 18.09375 -42.566406 17.976562 -43.722656 C 17.515625 -43.675781 16.796875 -43.835938 15.613281 -43.949219 L 18.457031 -45.878906 C 16.535156 -46.382812 15.820312 -44.203125 14.480469 -43.597656 C 10.960938 -43.707031 10.105469 -42.914062 8.609375 -39.253906 C 8.21875 -38.511719 7.847656 -37.539062 7.203125 -37.003906 C 3.828125 -33.382812 1.199219 -29.367188 -0.96875 -25.402344 C -3.574219 -21.160156 -5.253906 -17.007812 -6.472656 -12.90625 C -7.890625 -6.210938 -6.464844 -1.441406 -2.613281 1.90625 C 1.75 5.667969 7.960938 6.90625 14.308594 7.191406 C 18.546875 7.457031 22.691406 6.796875 27.433594 5.140625 C 29.445312 4.234375 31.019531 3.605469 32.777344 2.488281 C 34.742188 1.117188 36.570312 0.695312 38.652344 0.480469 C 41.222656 0.453125 43.980469 -0.0664062 46.382812 -1.714844 C 51.496094 -4.34375 56.070312 -7.621094 60.042969 -12.242188 C 61.105469 -13.285156 62.121094 -14.792969 62.722656 -15.789062 C 64.359375 -18.0625 65.488281 -20.753906 66.40625 -23.1875 C 69.632812 -30.535156 69.867188 -37.347656 67.863281 -43.222656 C 64.644531 -51.785156 59.511719 -58.511719 52.6875 -63.425781 C 47.910156 -66.679688 43.363281 -69.957031 37.753906 -72.1875 C 37.035156 -72.347656 36.292969 -72.742188 35.550781 -73.132812 C 31.792969 -75.554688 27.800781 -77.953125 23.859375 -79.890625 Z M 23.859375 -79.890625 "/></g></g></g><g fill="#222222" fill-opacity="1"><g transform="translate(294.258781, 408.952125)"><g><path d="M -6.867188 -133.125 C -4.222656 -132.457031 -2.277344 -131.722656 -1.578125 -129.453125 C -0.996094 -128.34375 0.464844 -127.792969 1.671875 -127.449219 C 3.339844 -127.152344 5.421875 -127.363281 7.296875 -127.324219 C 9.867188 -127.351562 12.671875 -127.40625 15.105469 -126.484375 C 15.847656 -126.09375 17.003906 -126.214844 17.953125 -126.078125 C 38.769531 -128.445312 19.378906 -84.8125 17.429688 -76.421875 C 13.785156 -61.777344 11.320312 -47.019531 9.761719 -32.585938 C 9.292969 -25.753906 9.03125 -19.175781 9.023438 -12.390625 C 9.15625 -6.554688 11.320312 -1.394531 13.464844 3.53125 C 14.046875 4.644531 15.089844 5.707031 16.113281 6.535156 C 17.644531 7.785156 20.121094 6.828125 21.78125 4.785156 L 24.808594 2.371094 C 27.445312 0.695312 29.570312 -1.394531 31.136719 -4.363281 C 31.921875 -5.847656 32.9375 -7.355469 33.976562 -8.632812 C 35.613281 -10.90625 36.558594 -13.109375 36.785156 -15.46875 C 37.167969 -18.550781 38.019531 -21.679688 38.867188 -24.808594 C 39.394531 -26.5 39.902344 -28.425781 39.734375 -30.042969 C 39.472656 -32.589844 39.675781 -35.1875 40.085938 -38.035156 L 41.367188 -43.78125 L 43.722656 -55.019531 C 43.859375 -55.96875 44.230469 -56.945312 44.34375 -58.125 C 44.886719 -61.925781 45.179688 -65.933594 46.394531 -70.035156 C 49.132812 -77.566406 51.175781 -85.03125 53.21875 -92.492188 C 53.699219 -94.648438 54.667969 -96.617188 55.402344 -98.566406 C 63.019531 -108.703125 59.503906 -133.847656 74.484375 -136.085938 C 77.886719 -137.136719 81.125 -137.46875 84.457031 -139.214844 C 87.324219 -140.910156 90.214844 -142.378906 92.851562 -144.050781 L 99.601562 -148.953125 C 101.152344 -149.816406 101.933594 -151.300781 102.253906 -152.738281 C 102.914062 -157.71875 102.902344 -162.394531 101.292969 -166.675781 C 100.992188 -167.347656 100.6875 -168.015625 100.15625 -168.664062 C 97.773438 -166.78125 95.714844 -166.335938 93.421875 -165.867188 C 83.5625 -163.921875 73.699219 -161.972656 63.863281 -159.796875 L 42.410156 -154.554688 C 37.386719 -153.335938 32.15625 -151.863281 27.226562 -149.722656 C 22.738281 -147.859375 18.484375 -146.015625 14.179688 -144.640625 C 9.667969 -143.007812 5.410156 -141.167969 0.96875 -138.839844 C -1.691406 -137.398438 -4.09375 -135.746094 -6.867188 -133.125 Z M -6.867188 -133.125 "/></g></g></g><g fill="#222222" fill-opacity="1"><g transform="translate(376.671536, 400.501014)"><g/></g></g><g fill="#222222" fill-opacity="1"><g transform="translate(434.545589, 394.566251)"><g><path d="M 77.6875 -77.453125 C 77.296875 -76.710938 76.214844 -73.558594 78.335938 -68.863281 C 78.894531 -67.984375 79.453125 -67.105469 80.242188 -66.25 C 79.207031 -62.636719 80.585938 -58.332031 80.246094 -54.789062 C 76.097656 -29.09375 60.941406 -60.527344 58.507812 -61.449219 C 51.929688 -70.835938 42.117188 -77.550781 37.0625 -88.027344 C 35.734375 -91.867188 34.863281 -98.097656 35.152344 -102.105469 C 35.359375 -111.484375 43.980469 -118.683594 50.101562 -125.160156 C 52.691406 -127.296875 56.394531 -127.679688 59.109375 -126.320312 C 65.832031 -122.328125 68.695312 -108.117188 62.527344 -102.101562 C 54.050781 -93.511719 52.5 -92.652344 44.65625 -98.398438 C 39.414062 -92.480469 55.800781 -78.71875 59.425781 -82.132812 C 64.742188 -87.355469 72.855469 -74.386719 81.878906 -105.023438 C 84.683594 -114.203125 79.9375 -121.671875 76.378906 -129.027344 C 74.585938 -132.820312 71.707031 -135.800781 67.601562 -137.015625 C 64.9375 -137.914062 61.160156 -138.226562 58.265625 -139.101562 C 53.929688 -140.292969 48.910156 -139.078125 44.003906 -136.703125 C 32.394531 -131.300781 23.601562 -118.933594 22.066406 -101.933594 C 21.140625 -92.710938 25.34375 -79.105469 32.171875 -71.851562 C 33.933594 -70.628906 33.4375 -66.367188 26.910156 -63.824219 C 23.535156 -62.542969 17.734375 -57.503906 15.242188 -54.4375 C 10.902344 -48.847656 8.964844 -44.90625 6.804688 -38.601562 C 2.476562 -28.328125 3.515625 -20.480469 5.828125 -11.59375 C 8.65625 -2.292969 13.511719 3.996094 21.117188 7.425781 C 26.238281 9.476562 30.34375 10.691406 35.363281 9.476562 L 38.328125 8.703125 C 43.8125 7.4375 51.636719 6.167969 57.09375 2.335938 C 57.761719 2.03125 65.96875 -4.660156 66.335938 -5.632812 L 74.648438 -15.84375 C 80.65625 -21.140625 80.699219 -23.015625 84.085938 -19.621094 C 88.777344 -14.953125 88.558594 -10.25 89.210938 -8.445312 C 89.234375 -8.214844 88.074219 1.027344 82.90625 -1.484375 C 78.707031 -3.625 77.984375 21.25 94.671875 -0.816406 L 95.753906 -13.09375 C 95.300781 -17.492188 87.71875 -29.816406 84.816406 -33.03125 C 83.5 -41.316406 89.351562 -52.679688 90.101562 -59.074219 C 93.300781 -57.53125 96.941406 -56.265625 99.28125 -56.273438 C 105.859375 -56.011719 116.507812 -66.226562 116.613281 -69.746094 C 116.722656 -73.269531 106.558594 -81.117188 106.054688 -79.191406 C 105.316406 -77.246094 102.433594 -73.441406 97.6875 -71.785156 C 93.152344 -70.382812 87.359375 -72.128906 82.722656 -73.992188 C 77.855469 -75.832031 77.847656 -78.171875 77.6875 -77.453125 Z M 63.054688 -39.921875 C 70.160156 -32.230469 77.859375 -27.871094 68.78125 -18.285156 C 65.5 -16.074219 58.339844 -8.320312 55.816406 -7.828125 L 43.570312 -6.339844 C 37.328125 -10.144531 28.417969 -17.1875 30.574219 -25.828125 C 32.226562 -32.550781 34.710938 -37.953125 38.238281 -44.632812 C 45.179688 -56.808594 55.675781 -45.71875 63.054688 -39.921875 Z M 63.054688 -39.921875 "/></g></g></g><g fill="#222222" fill-opacity="1"><g transform="translate(568.350531, 380.845068)"><g/></g></g><g fill="#222222" fill-opacity="1"><g transform="translate(626.224584, 374.910306)"><g><path d="M 77.984375 -124.746094 C 80.34375 -126.859375 83.398438 -126.703125 86.132812 -127.453125 C 88.191406 -127.898438 90.273438 -128.113281 92.054688 -128.996094 C 95.410156 -130.507812 98.421875 -130.816406 101.683594 -130.917969 C 101.683594 -130.917969 101.941406 -130.710938 101.964844 -130.480469 C 101.5 -130.433594 100.832031 -130.128906 100.367188 -130.082031 C 100.484375 -128.925781 100.375 -127.742188 101.761719 -127.886719 C 101.226562 -128.53125 101.15625 -129.226562 102.289062 -129.578125 L 106.617188 -130.722656 L 101.761719 -127.886719 C 104.355469 -127.683594 106.320312 -129.054688 108.238281 -130.890625 C 109.09375 -131.679688 110.179688 -132.492188 111.824219 -132.425781 C 114.1875 -132.203125 114.601562 -132.710938 114.804688 -135.304688 L 112.722656 -135.09375 L 117.066406 -138.34375 C 116.460938 -139.6875 116.207031 -139.894531 116.988281 -141.378906 C 117.75 -143.09375 117.816406 -144.738281 116.746094 -146.035156 C 115.957031 -146.886719 115.558594 -148.484375 113.914062 -148.550781 C 113.453125 -148.503906 113.171875 -148.941406 112.894531 -149.382812 L 111.339844 -150.859375 C 110.828125 -151.277344 107.914062 -150.042969 107.753906 -149.324219 C 108.261719 -148.90625 108.542969 -148.46875 108.820312 -148.027344 C 107.828125 -146.289062 106.488281 -145.683594 104.867188 -145.515625 C 100.929688 -145.113281 97.25 -144.503906 93.339844 -143.867188 C 90.351562 -143.328125 87.34375 -143.019531 84.332031 -142.710938 C 83.40625 -142.613281 82.433594 -142.984375 81.484375 -143.121094 C 79.886719 -142.722656 78.105469 -141.835938 76.949219 -141.71875 C 73.035156 -141.082031 68.9375 -139.960938 65.140625 -140.507812 C 63.472656 -140.804688 61.433594 -140.128906 59.582031 -139.9375 L 36.546875 -136.40625 C 36.085938 -136.359375 35.136719 -136.496094 34.878906 -136.703125 C 34.601562 -137.140625 34.992188 -137.882812 35.128906 -138.832031 C 33.605469 -137.742188 33.046875 -138.621094 32.304688 -139.011719 C 31.304688 -139.613281 30.101562 -139.957031 28.808594 -138.886719 L 28.972656 -137.265625 C 29.210938 -134.953125 28.796875 -134.441406 26.25 -134.179688 C 23.238281 -133.871094 20.4375 -133.816406 17.632812 -133.765625 C 16.476562 -133.644531 15.039062 -133.964844 13.140625 -134.238281 C 14.25 -134.820312 14.664062 -135.332031 15.128906 -135.378906 L 22.027344 -136.554688 C 23.183594 -136.671875 24.574219 -136.816406 25.707031 -137.164062 C 25.867188 -137.882812 25.820312 -138.347656 25.796875 -138.578125 L 10.882812 -137.984375 C 8.570312 -137.746094 6.902344 -138.042969 5.578125 -139.546875 C 5.554688 -139.777344 5.320312 -139.753906 5.089844 -139.730469 C 3.957031 -139.378906 2.847656 -138.800781 2.988281 -137.410156 C 2.882812 -133.890625 1.640625 -130.019531 3.132812 -126.894531 C 3.410156 -126.457031 3.457031 -125.992188 3.25 -125.738281 C 2.976562 -123.839844 4.046875 -122.542969 4.859375 -121.457031 L 6.253906 -119.261719 C 7.089844 -117.941406 7.925781 -116.625 8.972656 -115.5625 C 9.761719 -114.707031 10.832031 -113.414062 12.011719 -113.300781 C 25.429688 -110.230469 19.699219 -104.496094 14.625 -87.832031 C 14.464844 -87.113281 14.070312 -86.371094 13.449219 -85.605469 C 12.273438 -83.378906 10.882812 -83.238281 9.328125 -84.714844 C 6.828125 -83.992188 4.535156 -83.523438 2.015625 -83.03125 C -1.644531 -82.1875 -1.875 -82.164062 -3.339844 -85.054688 C -3.667969 -85.957031 -4.433594 -86.582031 -4.992188 -87.457031 L -6.054688 -86.414062 C -6.214844 -85.695312 -6.605469 -84.953125 -6.996094 -84.210938 C -8.445312 -80.085938 -8.910156 -80.039062 -11.949219 -82.300781 L -12.410156 -82.253906 C -12.597656 -81.765625 -13.21875 -81 -13.378906 -80.28125 C -13.949219 -76.714844 -13.824219 -73.21875 -12.335938 -70.09375 C -12.007812 -69.191406 -11.472656 -68.542969 -12.050781 -67.316406 C -12.210938 -66.597656 -12.117188 -65.671875 -11.1875 -65.765625 C -10.007812 -65.652344 -9.707031 -64.984375 -9.171875 -64.335938 C -8.867188 -63.664062 -7.710938 -63.785156 -7.199219 -63.367188 C -6.714844 -63.183594 -6.664062 -62.722656 -6.640625 -62.488281 C -5.734375 -60.476562 -5.058594 -58.441406 -4.378906 -56.402344 C -3.09375 -50.6875 -5.058594 -31.066406 -5.367188 -24.953125 C -5.40625 -23.074219 -5.703125 -21.40625 -6 -19.738281 C -6.113281 -18.558594 -6.714844 -17.5625 -6.828125 -16.378906 L -7.890625 -6.210938 C -8.1875 -4.542969 -8.277344 -3.128906 -8.828125 -1.667969 C -10.117188 1.738281 -9.367188 4.46875 -6.632812 6.0625 C -5.632812 6.660156 -4.199219 6.980469 -2.992188 7.324219 L 1.597656 8.726562 L 5.929688 9.921875 C 8.039062 9.9375 9.683594 10.003906 11.925781 9.070312 C 14.171875 8.140625 16.4375 7.4375 18.9375 6.714844 C 19.097656 5.996094 19.257812 5.277344 19.1875 4.582031 C 19.664062 0.0898438 20.136719 -4.40625 20.84375 -8.921875 C 21.070312 -11.285156 21.734375 -13.925781 22.421875 -16.335938 C 24.746094 -23.359375 29.625 -44.214844 31.945312 -51.238281 C 37.871094 -71.03125 34.402344 -68.335938 52.445312 -77.207031 L 60.265625 -80.816406 L 62.070312 -81.46875 C 65.007812 -82.472656 68.226562 -83.035156 70.886719 -84.476562 C 75.117188 -86.550781 79.167969 -88.132812 83.472656 -89.511719 C 84.347656 -90.070312 85.277344 -90.164062 85.851562 -91.394531 C 86.449219 -92.390625 87.539062 -93.203125 88.390625 -93.992188 C 90.566406 -95.621094 93.480469 -96.855469 93.867188 -99.9375 C 93.84375 -100.167969 94.050781 -100.421875 94.257812 -100.679688 C 95.367188 -101.261719 95.042969 -102.164062 94.945312 -103.089844 C 90.40625 -104.027344 78.085938 -103.230469 72.925781 -101.0625 L 83.578125 -102.15625 C 77.882812 -100.636719 72.28125 -100.53125 66.609375 -98.777344 C 66.148438 -98.730469 65.867188 -99.171875 64.917969 -99.308594 L 70.171875 -100.546875 C 65.773438 -100.097656 61.214844 -98.925781 56.886719 -97.78125 C 44.109375 -94.601562 41.550781 -99.015625 43.53125 -104.835938 C 48.21875 -118.417969 42.875 -115.765625 62.550781 -120.121094 C 64.609375 -120.566406 66.902344 -121.035156 69.21875 -121.273438 C 69.449219 -121.296875 69.9375 -121.113281 70.375 -121.390625 C 73.800781 -122.210938 77.503906 -122.589844 80.996094 -125.054688 Z M 71.878906 -122.714844 L 71.828125 -123.179688 L 72.941406 -123.761719 C 72.964844 -123.527344 73.195312 -123.550781 73.21875 -123.320312 Z M 77.753906 -124.722656 C 77.363281 -123.980469 76.714844 -123.445312 75.71875 -124.046875 C 76.179688 -124.09375 76.851562 -124.394531 77.753906 -124.722656 Z M 77.753906 -124.722656 "/></g></g></g><g fill="#222222" fill-opacity="1"><g transform="translate(732.481396, 364.014077)"><g><path d="M -7.003906 -40.925781 C -6.703125 -40.257812 -6.863281 -39.539062 -6.558594 -38.867188 C -5.726562 -30.765625 -3.738281 -22.777344 0.214844 -16.164062 C 4.796875 -7.980469 10.996094 -2.296875 19.390625 1.988281 C 22.613281 3.765625 26.460938 4.773438 30.417969 4.601562 C 32.039062 4.433594 33.707031 4.730469 35.351562 4.796875 C 37.507812 5.277344 39.824219 5.039062 42.226562 3.390625 C 43.570312 2.785156 44.933594 2.410156 46.253906 1.574219 C 52.128906 -0.433594 56.890625 -4.195312 60.421875 -8.535156 C 64.394531 -13.15625 67.464844 -17.445312 70.996094 -21.785156 C 71.574219 -23.015625 72.820312 -24.546875 72.933594 -25.726562 C 75.234375 -30.644531 78.257812 -35.398438 78.894531 -40.609375 C 79.878906 -44.691406 81.582031 -48.609375 81.875 -52.613281 C 82.875 -58.800781 84.550781 -65.289062 84.371094 -71.589844 C 84.082031 -76.707031 85.386719 -82.222656 85.535156 -87.617188 C 85.277344 -90.164062 85.246094 -92.734375 84.984375 -95.28125 C 85.375 -96.023438 85.003906 -97.390625 85.394531 -98.132812 C 87.050781 -102.511719 87.917969 -107.75 87.882812 -112.660156 C 87.472656 -118.933594 86.601562 -125.160156 84.179688 -130.527344 C 81.964844 -136.148438 79.773438 -141.539062 76.105469 -145.375 C 72.96875 -148.5625 69.90625 -151.058594 66.589844 -153.757812 C 64.546875 -155.421875 61.441406 -156.039062 57.945312 -155.914062 C 50.328125 -154.898438 42.367188 -152.679688 35.96875 -146.640625 C 33.632812 -144.296875 31.484375 -142.4375 29.128906 -140.324219 C 28.550781 -139.09375 27.464844 -138.28125 25.773438 -138.808594 C 22.972656 -138.757812 20.214844 -138.242188 17.929688 -135.433594 C 15.070312 -131.394531 12.464844 -127.152344 11.039062 -122.792969 L 6.621094 -111.109375 C 5.421875 -109.117188 4.574219 -105.988281 3.882812 -103.578125 L -4.789062 -71.804688 C -7.449219 -61.238281 -8.976562 -51.019531 -7.003906 -40.925781 Z M 12.214844 -70.273438 C 16.9375 -69.820312 20.667969 -69.96875 24.097656 -68.449219 C 25.582031 -67.664062 27.386719 -68.320312 29.238281 -68.507812 C 30.398438 -68.628906 31.714844 -69.464844 31.574219 -70.851562 C 33.109375 -76.390625 35.160156 -81.515625 36.902344 -87.308594 C 36.832031 -88.003906 37.015625 -88.492188 37.664062 -89.023438 C 38.746094 -92.175781 39.617188 -95.074219 40.234375 -98.179688 C 41.058594 -101.539062 42.90625 -104.070312 44.242188 -107.011719 C 46.386719 -111.210938 48.066406 -115.359375 50.207031 -119.558594 C 50.992188 -121.042969 52.054688 -122.085938 52.957031 -122.414062 C 54.460938 -123.738281 56.054688 -124.132812 57.375 -124.972656 C 60.519531 -126.230469 63.164062 -125.566406 65.226562 -123.671875 C 68.035156 -121.386719 69.246094 -118.703125 69.394531 -114.972656 C 69.835938 -106.128906 69.675781 -96.285156 69.164062 -87.578125 C 68.015625 -73.65625 64.972656 -60.007812 59.722656 -47.300781 C 55.050781 -35.828125 47.875 -25.964844 39.882812 -17.191406 C 37.574219 -14.617188 34.449219 -13.125 31.582031 -11.425781 C 30.289062 -10.359375 28.390625 -10.632812 26.90625 -11.414062 C 23.195312 -13.375 21.703125 -16.496094 20.582031 -20.59375 C 19.039062 -26.519531 17.03125 -32.394531 14.746094 -38.710938 C 14.136719 -42.394531 12.621094 -45.746094 11.523438 -49.613281 C 11.261719 -52.160156 11.71875 -54.546875 11.667969 -57.347656 C 11.636719 -59.917969 11.558594 -62.953125 12.175781 -66.058594 C 12.058594 -67.214844 11.917969 -68.605469 12.214844 -70.273438 Z M 12.214844 -70.273438 "/></g></g></g><g fill="#222222" fill-opacity="1"><g transform="translate(840.821749, 352.90419)"><g><path d="M 59.734375 -51.75 C 53.222656 -44.53125 20.078125 -0.421875 27.570312 -32.308594 C 29.246094 -38.796875 31.613281 -45.355469 31.921875 -51.46875 C 32.171875 -53.601562 32.628906 -55.988281 33.109375 -58.144531 C 34.273438 -65.046875 35.925781 -71.765625 37.113281 -78.441406 C 37.914062 -82.03125 38.25 -85.574219 39.285156 -89.191406 C 40.976562 -97.789062 41.972656 -97.1875 44.128906 -105.832031 C 45.660156 -113.710938 43.75 -118.660156 37.675781 -120.847656 C 34.269531 -122.132812 30.03125 -122.402344 26.621094 -123.691406 C 23.75 -124.332031 20.738281 -124.023438 17.753906 -123.480469 L 10.253906 -121.308594 C 8.890625 -120.933594 7.546875 -120.328125 6.949219 -119.332031 L 5.488281 -110.761719 C 4.316406 -106.195312 3.378906 -101.652344 2.003906 -96.832031 C -2.683594 -80.910156 -2.734375 -74.589844 -5.566406 -58.855469 C -6.660156 -51.257812 -7.082031 -43.960938 -8.175781 -36.363281 C -9.632812 -27.789062 -9.523438 -19.847656 -6.957031 -13.089844 C -4.511719 -7.492188 -1.050781 -3.402344 6.015625 -2.957031 C 14.050781 -2.144531 22.5 -4.179688 31.65625 -10.734375 C 36.671875 -14.289062 41.617188 -18.539062 45.84375 -22.949219 C 54.136719 -31.054688 61.925781 -37.234375 58.730469 -18.1875 C 58.601562 -14.898438 59.117188 -12.144531 59.890625 -9.183594 C 60.359375 -6.890625 62.535156 -6.179688 65.339844 -6.230469 C 66.960938 -6.398438 68.628906 -6.101562 70.273438 -6.035156 C 73.816406 -5.699219 77.242188 -6.515625 81.195312 -9.027344 C 82.488281 -10.097656 84.269531 -10.980469 85.332031 -12.027344 C 89.398438 -15.71875 92.726562 -19.804688 91.8125 -24.15625 C 91.34375 -26.445312 89.601562 -27.4375 88.300781 -28.707031 C 80.429688 -27.902344 87.90625 -48.554688 88.488281 -56.570312 C 89.265625 -69.515625 95.527344 -83.730469 97.511719 -96.332031 C 97.96875 -98.71875 98.886719 -101.152344 100.039062 -103.609375 C 102.574219 -108.550781 104.441406 -113.1875 105.121094 -117.9375 L 108.328125 -132.300781 C 108.808594 -134.457031 112.65625 -142.574219 110.804688 -142.382812 C 106.589844 -142.417969 102.628906 -142.246094 98.4375 -142.050781 C 97.71875 -142.210938 96.378906 -141.605469 94.988281 -141.460938 C 94.691406 -139.792969 89.503906 -131.074219 89.183594 -129.636719 C 85.085938 -119.390625 82.148438 -109.261719 79.230469 -98.902344 C 78.40625 -95.542969 77.117188 -92.136719 76.0625 -88.75 C 74.589844 -84.855469 68.550781 -63.882812 66.890625 -61.839844 C 64.417969 -58.546875 62.4375 -55.066406 59.734375 -51.75 Z M 59.734375 -51.75 "/></g></g></g><g fill="#222222" fill-opacity="1"><g transform="translate(961.199949, 340.559867)"><g><path d="M -2.136719 -75.585938 C -2.296875 -74.867188 -1.992188 -74.195312 -2.175781 -73.710938 C -0.3125 -78.347656 0.578125 -83.351562 3.574219 -88.335938 C 3.511719 -86.691406 3.214844 -85.023438 2.917969 -83.355469 L -3.921875 -58.789062 C -8.488281 -41.710938 -11.25 -25.285156 -10.351562 -9.699219 C -9.992188 -3.890625 -9.375 2.132812 -10.121094 8.523438 C -10.417969 10.191406 -8.050781 12.757812 -6.867188 12.871094 C -4.042969 13.046875 -0.824219 12.484375 2.601562 11.664062 C 5.539062 10.664062 8.40625 8.964844 11.226562 6.804688 C 12.726562 5.480469 13.949219 3.714844 16.011719 3.269531 C 16.472656 3.222656 17.097656 2.457031 17.488281 1.714844 C 20.007812 -1.117188 20.648438 -3.988281 21.035156 -7.070312 C 21.578125 -10.871094 22.332031 -14.925781 24.015625 -19.074219 C 25.488281 -22.96875 26.496094 -26.816406 27.738281 -30.6875 C 28.792969 -34.070312 30.082031 -37.476562 32.34375 -40.515625 C 35.828125 -45.320312 38.363281 -50.257812 40.179688 -55.359375 C 41.675781 -59.019531 43.425781 -62.476562 45.898438 -65.769531 C 48.367188 -69.066406 50.351562 -72.546875 51.636719 -75.953125 C 53.132812 -79.617188 55.140625 -82.863281 57.867188 -85.949219 C 59.574219 -87.527344 60.773438 -89.523438 61.765625 -91.261719 L 78.15625 -120.785156 C 87.230469 -123.585938 75.324219 -95.929688 74.589844 -84.855469 C 73.722656 -79.621094 72.855469 -74.386719 71.734375 -69.355469 L 72.195312 -69.402344 C 73.023438 -72.765625 73.824219 -76.355469 74.417969 -79.691406 C 74.878906 -79.738281 75.113281 -79.761719 75.320312 -80.019531 C 74.054688 -76.378906 75.472656 -73.953125 73.976562 -70.289062 C 72.457031 -66.855469 73.484375 -63.6875 71.015625 -60.390625 C 71.574219 -59.511719 72.546875 -59.144531 72.386719 -58.425781 C 72.320312 -56.78125 72.046875 -54.882812 71.519531 -53.191406 C 70.625 -50.527344 70.859375 -48.210938 71.699219 -46.890625 C 73.324219 -44.71875 70.796875 -37.441406 70.640625 -34.382812 C 70.527344 -33.203125 70.414062 -32.019531 70.511719 -31.09375 C 71.632812 -27 72.777344 -22.671875 74.109375 -18.828125 C 76.535156 -11.125 85.148438 -11.539062 92.503906 -15.101562 C 95.835938 -16.847656 99.117188 -19.054688 102.402344 -21.261719 C 104.160156 -22.378906 105.636719 -23.933594 106.835938 -25.929688 C 108.402344 -28.898438 110.019531 -31.402344 111.609375 -34.140625 C 112.785156 -36.367188 113.960938 -38.59375 114.90625 -40.792969 C 115.089844 -41.28125 115.226562 -42.230469 114.738281 -42.414062 C 113.695312 -43.476562 113.296875 -45.074219 113.082031 -47.160156 C 108.832031 -42.980469 106.785156 -37.855469 101.789062 -34.070312 L 100.070312 -37.167969 C 100.019531 -37.628906 99.742188 -38.070312 99.464844 -38.507812 C 98.140625 -40.011719 99.835938 -46.269531 100.480469 -49.140625 C 101.144531 -51.785156 100.90625 -54.097656 99.972656 -56.34375 C 99.671875 -57.015625 99.808594 -57.964844 99.945312 -58.914062 C 100.195312 -61.042969 100.929688 -62.992188 100.949219 -65.097656 C 101.496094 -68.898438 101.785156 -72.90625 102.769531 -76.984375 C 103.277344 -78.90625 102.621094 -80.714844 103.359375 -82.660156 C 104.695312 -85.605469 105.105469 -88.453125 105.769531 -91.097656 C 107.1875 -97.792969 114.789062 -114.949219 116.230469 -121.414062 C 117.578125 -128.804688 118.023438 -135.871094 116.457031 -142.027344 C 115.40625 -145.429688 113.109375 -147.296875 109.332031 -147.613281 C 104.628906 -147.832031 99.449219 -145.898438 94.425781 -144.679688 C 93.523438 -144.355469 92.179688 -143.75 91.253906 -143.652344 C 89.378906 -143.695312 87.621094 -142.578125 86.144531 -141.023438 L 83.785156 -138.910156 C 75.117188 -132.171875 62.777344 -113.359375 57.355469 -104.613281 C 52.949219 -97.378906 49.265625 -89.980469 45.320312 -82.792969 C 34.707031 -67.664062 37.949219 -77.121094 40.242188 -95.839844 C 40.738281 -100.101562 40.335938 -104.039062 42.429688 -108.699219 C 43.03125 -109.695312 42.679688 -110.832031 42.378906 -111.5 C 41.445312 -113.746094 40.515625 -115.988281 39.167969 -117.722656 C 36.097656 -122.554688 30.140625 -123.582031 23.84375 -123.40625 C 20.117188 -123.257812 16.066406 -121.671875 12.523438 -122.011719 C 10.414062 -122.027344 9.558594 -121.238281 8.871094 -118.828125 C 7.839844 -115.210938 6.804688 -111.597656 6.003906 -108.003906 Z M -2.136719 -75.585938 "/></g></g></g><g fill="#222222" fill-opacity="1"><g transform="translate(1096.856796, 326.648777)"><g><path d="M 31.726562 -0.914062 C 31.933594 -1.167969 31.933594 -1.167969 31.886719 -1.632812 L 37.804688 -5.515625 C 47.46875 -11.652344 56.578125 -18.667969 65.796875 -26.867188 C 71.339844 -32.117188 76.144531 -37.753906 80.898438 -43.859375 C 84.039062 -47.457031 86.902344 -51.492188 89.53125 -55.507812 C 93.457031 -60.585938 96.175781 -66.015625 99.125 -71.464844 C 100.460938 -74.410156 101.84375 -76.890625 103.203125 -79.601562 C 106.035156 -86.210938 107.6875 -92.929688 110.054688 -99.492188 C 111.546875 -105.492188 113.292969 -111.285156 113.390625 -117.144531 C 113.8125 -124.441406 113.332031 -131.410156 109.800781 -136.195312 C 106.777344 -140.566406 102.71875 -143.660156 97.386719 -145.453125 C 89.878906 -147.957031 81.886719 -148.308594 73.480469 -148.148438 C 64.636719 -147.707031 55.398438 -146.527344 45.886719 -143.445312 C 40.726562 -141.28125 35.195312 -140.476562 30.011719 -138.542969 L 22.515625 -136.371094 C 19.367188 -135.113281 15.4375 -132.371094 12.125 -132.730469 C 11.199219 -132.636719 10.113281 -131.824219 9.792969 -130.386719 C 9.078125 -128.207031 8.136719 -126.003906 7.933594 -123.410156 C 7.875 -119.425781 7.421875 -114.703125 8.519531 -110.835938 L 8.996094 -106.207031 C 9.328125 -102.964844 10.769531 -100.304688 13.597656 -100.128906 C 15.265625 -99.832031 16.652344 -99.972656 18.042969 -100.117188 C 21.46875 -100.933594 25.054688 -102.472656 29.054688 -104.519531 C 29.980469 -104.613281 30.652344 -104.917969 31.785156 -105.269531 C 31.144531 -102.394531 30.433594 -100.214844 30.230469 -97.621094 C 28.8125 -90.925781 27.160156 -84.203125 25.765625 -77.277344 C 24.875 -72.273438 23.824219 -66.550781 22.496094 -61.265625 L 15.898438 -32.046875 L 13.765625 -23.171875 C 13.101562 -20.527344 12.894531 -20.273438 10.417969 -19.316406 C 5.515625 -16.941406 13.171875 -19.835938 7.808594 -17.410156 C 3.757812 -15.828125 -0.3125 -14.472656 -4.316406 -12.425781 C -6.816406 -11.703125 -9.21875 -10.050781 -11.832031 -8.144531 C -13.195312 -7.769531 -14.445312 -6.238281 -14.996094 -4.777344 C -15.636719 -1.90625 -16.511719 0.992188 -17.359375 4.121094 C -17.542969 4.605469 -17.65625 5.789062 -16.730469 5.691406 C -15.867188 7.242188 -15.679688 9.09375 -15.71875 10.96875 C -15.324219 12.566406 -14.996094 13.46875 -13.558594 13.789062 C -10.894531 14.6875 -8.414062 16.070312 -4.617188 14.277344 C -4.410156 14.023438 -3.714844 13.949219 -2.972656 14.34375 C 0.425781 13.292969 3.875 12.703125 7.535156 11.863281 C 14.382812 10.222656 8.410156 11.304688 15.167969 8.738281 C 16.765625 8.339844 18.546875 7.457031 19.773438 8.03125 C 21.234375 8.585938 21.859375 7.820312 22.898438 6.542969 C 25.039062 2.34375 25.992188 2.480469 28.699219 1.503906 C 31.058594 1.726562 34.832031 -0.296875 37.140625 -2.871094 Z M 54.824219 -42.589844 C 36.648438 -23.644531 22.96875 -20.136719 32.902344 -48.761719 C 33.863281 -53.074219 33.945312 -56.824219 34.492188 -60.625 C 35.960938 -66.859375 37.449219 -72.859375 38.683594 -79.070312 C 40.335938 -85.789062 41.984375 -92.511719 43.148438 -99.414062 C 43.652344 -101.335938 44.574219 -103.773438 45.566406 -105.511719 C 45.285156 -105.949219 45.886719 -106.949219 46.347656 -106.996094 C 47.4375 -107.808594 48.800781 -108.183594 49.703125 -108.507812 C 62.359375 -112.847656 73.707031 -114.011719 84.777344 -113.277344 C 88.089844 -112.914062 91.425781 -112.320312 94.53125 -111.703125 C 95.480469 -111.566406 96.316406 -110.246094 95.996094 -108.8125 C 96.015625 -101.792969 93.695312 -94.769531 90.492188 -87.191406 C 86.253906 -78.332031 80.53125 -70.257812 74.320312 -62.371094 C 68.527344 -54.988281 61.945312 -48.464844 54.824219 -42.589844 Z M 54.824219 -42.589844 "/></g></g></g></svg>